# xmcd
#
# Track frame offsets:
# 150
# 13378
# 26971
# 44080
# 60971
# 73976
# 89220
# 103642
# 119626
# 138811
# 150315
# 161241
# 173756
# 186992
#
# Disc length: 2659 seconds
#
#
# Revision: 0
# Processed by: cddbd v1.5.1PL2 Copyright (c) Steve Scherf et al.
# Submitted via: FreeRIP 2.944 
#
DISCID=cf0a610e
DTITLE=Percy Sledge - Golden Legends
DYEAR=1900
DGENRE=Rhythm and Soul
TTITLE0=When a Man Love a Woman
TTITLE1=Take Time to Know Her
TTITLE2=If Loving You is Wrong I Don't Want to be Right
TTITLE3=Try a Little Tenderness
TTITLE4=I've Been Loving You Too Long
TTITLE5=Bring it on Home To Me
TTITLE6=Warm and Tender Love
TTITLE7=Just Out of Reach
TTITLE8=You Send Me
TTITLE9=Tell it Like is Is
TTITLE10=Baby Help Me
TTITLE11=The Dark End of the Street
TTITLE12=My Special Prayer
TTITLE13=It Tears Me Up
EXTD=New stereo recordings by the original artist
EXTT0=
EXTT1=
EXTT2=
EXTT3=
EXTT4=
EXTT5=
EXTT6=
EXTT7=
EXTT8=
EXTT9=
EXTT10=
EXTT11=
EXTT12=
EXTT13=
PLAYORDER=
